<svg width="24" height="24" viewBox="0 0 24 24" fill="none" xmlns="http://www.w3.org/2000/svg">
<path d="M13.8 3.59998C12.5713 3.5999 11.367 3.9428 10.3226 4.59007C9.27828 5.23733 8.43534 6.16328 7.88871 7.26365C7.34207 8.36402 7.11345 9.59514 7.22858 10.8184C7.34371 12.0417 7.79802 13.2085 8.54036 14.1876L3.56396 19.164C3.40441 19.3248 3.31136 19.5398 3.30339 19.7662C3.29542 19.9926 3.37311 20.2136 3.52095 20.3853C3.66879 20.5569 3.87591 20.6665 4.10098 20.6921C4.32605 20.7177 4.55251 20.6576 4.73516 20.5236L4.83596 20.436L9.81236 15.4596C10.6469 16.0922 11.6199 16.5171 12.6512 16.6993C13.6824 16.8815 14.7422 16.8157 15.7429 16.5073C16.7437 16.199 17.6567 15.6569 18.4065 14.9259C19.1564 14.1949 19.7215 13.296 20.0553 12.3034C20.389 11.3108 20.4818 10.2531 20.3259 9.21754C20.17 8.18201 19.77 7.19844 19.1588 6.34809C18.5476 5.49775 17.7429 4.80503 16.8111 4.32718C15.8793 3.84933 14.8471 3.60006 13.8 3.59998ZM13.8 5.39998C15.073 5.39998 16.2939 5.90569 17.1941 6.80586C18.0942 7.70604 18.6 8.92694 18.6 10.2C18.6 11.473 18.0942 12.6939 17.1941 13.5941C16.2939 14.4943 15.073 15 13.8 15C12.5269 15 11.306 14.4943 10.4058 13.5941C9.50567 12.6939 8.99996 11.473 8.99996 10.2C8.99996 8.92694 9.50567 7.70604 10.4058 6.80586C11.306 5.90569 12.5269 5.39998 13.8 5.39998Z" fill="#151A32"/>
</svg>
