<svg width="24" height="29" viewBox="0 0 24 29" fill="none" xmlns="http://www.w3.org/2000/svg">
<g filter="url(#filter0_d_512_9967)">
<path d="M5 20V19C5 17.1435 5.7375 15.363 7.05025 14.0503C8.36301 12.7375 10.1435 12 12 12V12C13.8565 12 15.637 12.7375 16.9497 14.0503C18.2625 15.363 19 17.1435 19 19V20" stroke="#151A32" stroke-width="1.5" stroke-linecap="round" stroke-linejoin="round"/>
<path d="M12 12C13.0609 12 14.0783 11.5786 14.8284 10.8284C15.5786 10.0783 16 9.06087 16 8C16 6.93913 15.5786 5.92172 14.8284 5.17157C14.0783 4.42143 13.0609 4 12 4C10.9391 4 9.92172 4.42143 9.17157 5.17157C8.42143 5.92172 8 6.93913 8 8C8 9.06087 8.42143 10.0783 9.17157 10.8284C9.92172 11.5786 10.9391 12 12 12V12Z" stroke="#151A32" stroke-width="1.5" stroke-linecap="round" stroke-linejoin="round"/>
</g>
<defs>
<filter id="filter0_d_512_9967" x="-4" y="0" width="32" height="32" filterUnits="userSpaceOnUse" color-interpolation-filters="sRGB">
<feFlood flood-opacity="0" result="BackgroundImageFix"/>
<feColorMatrix in="SourceAlpha" type="matrix" values="0 0 0 0 0 0 0 0 0 0 0 0 0 0 0 0 0 0 127 0" result="hardAlpha"/>
<feOffset dy="4"/>
<feGaussianBlur stdDeviation="2"/>
<feComposite in2="hardAlpha" operator="out"/>
<feColorMatrix type="matrix" values="0 0 0 0 0 0 0 0 0 0 0 0 0 0 0 0 0 0 0.25 0"/>
<feBlend mode="normal" in2="BackgroundImageFix" result="effect1_dropShadow_512_9967"/>
<feBlend mode="normal" in="SourceGraphic" in2="effect1_dropShadow_512_9967" result="shape"/>
</filter>
</defs>
</svg>
